<svg xmlns="http://www.w3.org/2000/svg" width="34" height="34">
  <path d="M17 0a17 17 0 1 0 0 34 17 17 0 0 0 0-34Zm14 15.6H27c-.2-4.4-1.3-8.2-3-11 4 2.2 6.7 6.2 7.2 11ZM15.7 3v12.5H10c.3-6.1 2.6-11.2 5.6-12.5Zm0 15.3V31c-3-1.3-5.3-6.4-5.6-12.5h5.6ZM18.4 31V18.4h5.7c-.3 6.1-2.7 11.2-5.7 12.5Zm0-15.3V3c3 1.3 5.3 6.4 5.6 12.5h-5.6Zm-8.2-11a23.2 23.2 0 0 0-3 11H2.8c.5-4.8 3.3-8.8 7.3-11ZM2.9 18.4h4.2c.2 4.4 1.3 8.2 3 11-4-2.2-6.7-6.2-7.2-11Zm21 11c1.7-2.8 2.8-6.6 3-11H31c-.5 4.8-3.3 8.8-7.3 11Z" fill="#FFF" fill-rule="evenodd"/>
</svg>
