<svg xmlns="http://www.w3.org/2000/svg" width="34" height="34">
  <path d="m10 18.7 4.6 4L23 14l-2-2-6.5 6.8-2.5-2.1-2 2ZM23.8 4.6c1.3 2 2.3 4.8 2.8 7.8l-4-3.8c-1-2.7-2.5-4.7-4.2-5.5v7.5l-2.8 3V3c-2.8 1.2-5 5.9-5.6 11.5l-3.6 3.8H2.9c.5 4.8 3.3 8.8 7.3 11-1.6-2.6-2.7-6-3-10l3.3 3c.9 4.2 2.8 7.5 5 8.5v-4.6l3-3V31c2.9-1.3 5.3-6.4 5.6-12.5h-1l3.7-3.8v1h4.3c-.5-4.8-3.3-8.8-7.3-11M3 15.6h4.2c.2-4.4 1.3-8.2 3-11-4 2.2-6.7 6.2-7.2 11m28.2 2.8h-4.2c-.2 4.4-1.3 8.2-3 11 4-2.2 6.7-6.2 7.2-11M17 34a17 17 0 1 1 0-34 17 17 0 0 1 0 34" fill="#FFF" fill-rule="evenodd"/>
</svg>
